# xmcd CD database file
#
# Track frame offsets:
#	150
#	18952
#	37520
#	55825
#	73277
#	91080
#	105687
#	124520
#	141240
#	160195
#	177040
#
# Disc length: 2600 seconds
#
# Revision: 2
# Processed by: cddbd v1.5.2PL0 Copyright (c) Steve Scherf et al.
# Submitted via: CDex 1.70beta2
#
DISCID=830a260b
DTITLE=Donatella Rettore - I Grandi Successi Originali - CD2
DYEAR=2001
DGENRE=Pop
TTITLE0=Viva
TTITLE1=Karakiri
TTITLE2=Amore stella
TTITLE3=Kamikaze rock'n'roll suicida
TTITLE4=I tuoi baci negli occhi
TTITLE5=Eroe
TTITLE6=Le mani
TTITLE7=This time
TTITLE8=Zan zan zan
TTITLE9=Padre non piangere
TTITLE10=Stregoneria
EXTD=YEAR: 2001
EXTT0=
EXTT1=
EXTT2=
EXTT3=
EXTT4=
EXTT5=
EXTT6=
EXTT7=
EXTT8=
EXTT9=
EXTT10=
PLAYORDER=
